<svg width="900" height="560" viewBox="0 0 900 560" xmlns="http://www.w3.org/2000/svg" font-family="'Segoe UI', Arial, sans-serif">
  <!-- Browser frame -->
  <rect width="900" height="560" rx="12" fill="#e5e7eb"/>
  <rect x="0" y="0" width="900" height="40" rx="12" fill="#d1d5db"/>
  <rect x="0" y="28" width="900" height="12" fill="#d1d5db"/>
  <circle cx="24" cy="20" r="6" fill="#ef4444"/>
  <circle cx="44" cy="20" r="6" fill="#f59e0b"/>
  <circle cx="64" cy="20" r="6" fill="#22c55e"/>
  <rect x="160" y="8" width="580" height="24" rx="12" fill="#f9fafb"/>
  <text x="450" y="24" text-anchor="middle" font-size="12" fill="#6b7280">localhost:3000/dashboard</text>

  <!-- Main bg -->
  <rect x="0" y="40" width="900" height="520" fill="#f9fafb"/>

  <!-- Sidebar -->
  <rect x="0" y="40" width="200" height="520" fill="white"/>
  <rect x="196" y="40" width="4" height="520" fill="#f3f4f6"/>

  <!-- Sidebar logo -->
  <text x="100" y="84" text-anchor="middle" font-size="14" font-weight="bold" fill="#f97316">🌟 Genius GenAI</text>

  <!-- Sidebar nav items -->
  <rect x="12" y="100" width="176" height="40" rx="8" fill="#fff7ed"/>
  <text x="36" y="126" font-size="20">📊</text>
  <text x="62" y="126" font-size="14" font-weight="bold" fill="#ea580c">總覽</text>

  <text x="36" y="172" font-size="20">👦</text>
  <text x="62" y="172" font-size="14" fill="#6b7280">孩子管理</text>

  <text x="36" y="218" font-size="20">💬</text>
  <text x="62" y="218" font-size="14" fill="#6b7280">對話記錄</text>

  <text x="36" y="264" font-size="20">⚙️</text>
  <text x="62" y="264" font-size="14" fill="#6b7280">AI 設定</text>

  <!-- Sidebar user -->
  <rect x="12" y="520" width="176" height="36" rx="8" fill="#fef2f2"/>
  <text x="100" y="543" text-anchor="middle" font-size="12" fill="#ef4444">登出</text>

  <!-- Content area -->
  <!-- Header -->
  <text x="226" y="82" font-size="22" font-weight="bold" fill="#111827">總覽</text>

  <!-- Stat cards -->
  <!-- Sessions -->
  <rect x="220" y="100" width="155" height="90" rx="12" fill="white"/>
  <text x="298" y="126" text-anchor="middle" font-size="12" fill="#9ca3af">本月對話次數</text>
  <text x="298" y="162" text-anchor="middle" font-size="28" font-weight="bold" fill="#111827">47</text>
  <text x="298" y="182" text-anchor="middle" font-size="11" fill="#22c55e">↑ 12% vs 上月</text>

  <!-- Duration -->
  <rect x="390" y="100" width="155" height="90" rx="12" fill="white"/>
  <text x="468" y="126" text-anchor="middle" font-size="12" fill="#9ca3af">對話總時長</text>
  <text x="468" y="162" text-anchor="middle" font-size="28" font-weight="bold" fill="#111827">3.2h</text>
  <text x="468" y="182" text-anchor="middle" font-size="11" fill="#22c55e">↑ 8% vs 上月</text>

  <!-- Tokens -->
  <rect x="560" y="100" width="155" height="90" rx="12" fill="white"/>
  <text x="638" y="126" text-anchor="middle" font-size="12" fill="#9ca3af">Token 用量</text>
  <text x="638" y="162" text-anchor="middle" font-size="28" font-weight="bold" fill="#111827">84K</text>
  <text x="638" y="182" text-anchor="middle" font-size="11" fill="#6b7280">─ 持平</text>

  <!-- Cost -->
  <rect x="730" y="100" width="155" height="90" rx="12" fill="white"/>
  <text x="808" y="126" text-anchor="middle" font-size="12" fill="#9ca3af">本月花費</text>
  <text x="808" y="162" text-anchor="middle" font-size="28" font-weight="bold" fill="#111827">$2.14</text>
  <text x="808" y="182" text-anchor="middle" font-size="11" fill="#22c55e">↓ 5% vs 上月</text>

  <!-- Chart area -->
  <rect x="220" y="208" width="520" height="200" rx="12" fill="white"/>
  <text x="240" y="234" font-size="14" font-weight="bold" fill="#374151">每日對話次數（最近 14 天）</text>

  <!-- Bar chart bars -->
  <defs>
    <linearGradient id="bar" x1="0%" y1="0%" x2="0%" y2="100%">
      <stop offset="0%" style="stop-color:#fb923c"/>
      <stop offset="100%" style="stop-color:#f97316"/>
    </linearGradient>
  </defs>

  <!-- X-axis -->
  <line x1="250" y1="380" x2="720" y2="380" stroke="#e5e7eb" stroke-width="1"/>

  <!-- Bars (14 bars) -->
  <rect x="254" y="340" width="26" height="40" rx="4" fill="url(#bar)" opacity="0.7"/>
  <rect x="288" y="325" width="26" height="55" rx="4" fill="url(#bar)" opacity="0.7"/>
  <rect x="322" y="350" width="26" height="30" rx="4" fill="url(#bar)" opacity="0.7"/>
  <rect x="356" y="310" width="26" height="70" rx="4" fill="url(#bar)"/>
  <rect x="390" y="330" width="26" height="50" rx="4" fill="url(#bar)" opacity="0.8"/>
  <rect x="424" y="345" width="26" height="35" rx="4" fill="url(#bar)" opacity="0.7"/>
  <rect x="458" y="320" width="26" height="60" rx="4" fill="url(#bar)"/>
  <rect x="492" y="300" width="26" height="80" rx="4" fill="url(#bar)"/>
  <rect x="526" y="335" width="26" height="45" rx="4" fill="url(#bar)" opacity="0.8"/>
  <rect x="560" y="355" width="26" height="25" rx="4" fill="url(#bar)" opacity="0.6"/>
  <rect x="594" y="290" width="26" height="90" rx="4" fill="url(#bar)"/>
  <rect x="628" y="315" width="26" height="65" rx="4" fill="url(#bar)" opacity="0.9"/>
  <rect x="662" y="340" width="26" height="40" rx="4" fill="url(#bar)" opacity="0.7"/>
  <rect x="696" y="305" width="26" height="75" rx="4" fill="url(#bar)"/>

  <!-- Children list -->
  <rect x="754" y="208" width="130" height="200" rx="12" fill="white"/>
  <text x="774" y="234" font-size="13" font-weight="bold" fill="#374151">我的孩子</text>

  <rect x="764" y="248" width="110" height="60" rx="8" fill="#fff7ed"/>
  <text x="774" y="268" font-size="20">🐻</text>
  <text x="800" y="268" font-size="13" font-weight="bold" fill="#374151">小明</text>
  <text x="800" y="283" font-size="11" fill="#9ca3af">登入碼: 123456</text>
  <text x="800" y="298" font-size="11" fill="#9ca3af">5 歲</text>

  <rect x="764" y="318" width="110" height="60" rx="8" fill="#f0fdf4"/>
  <text x="774" y="338" font-size="20">🐰</text>
  <text x="800" y="338" font-size="13" font-weight="bold" fill="#374151">小花</text>
  <text x="800" y="353" font-size="11" fill="#9ca3af">登入碼: 789012</text>
  <text x="800" y="368" font-size="11" fill="#9ca3af">4 歲</text>

  <!-- Usage detail bar at bottom -->
  <rect x="220" y="422" width="664" height="110" rx="12" fill="white"/>
  <text x="240" y="448" font-size="14" font-weight="bold" fill="#374151">本月 AI 使用明細</text>
  <text x="240" y="476" font-size="12" fill="#6b7280">LLM Tokens</text>
  <rect x="340" y="464" width="200" height="14" rx="7" fill="#f3f4f6"/>
  <rect x="340" y="464" width="140" height="14" rx="7" fill="#fb923c"/>
  <text x="554" y="476" font-size="12" fill="#374151">70K</text>

  <text x="240" y="506" font-size="12" fill="#6b7280">TTS 字數</text>
  <rect x="340" y="494" width="200" height="14" rx="7" fill="#f3f4f6"/>
  <rect x="340" y="494" width="90" height="14" rx="7" fill="#a78bfa"/>
  <text x="554" y="506" font-size="12" fill="#374151">12K</text>

  <text x="240" y="536" font-size="12" fill="#6b7280">STT 秒數</text>
  <rect x="340" y="524" width="200" height="14" rx="7" fill="#f3f4f6"/>
  <rect x="340" y="524" width="60" height="14" rx="7" fill="#34d399"/>
  <text x="554" y="536" font-size="12" fill="#374151">480s</text>
</svg>
